<svg viewBox="0 -6 512.00005 512" xmlns="http://www.w3.org/2000/svg"><path d="m78.078125 90.585938c.84375.308593 1.710937.453124 2.5625.453124 3.0625 0 5.941406-1.890624 7.046875-4.9375l16.515625-45.375c1.417969-3.894531-.589844-8.195312-4.480469-9.613281-3.894531-1.414062-8.199218.589844-9.613281 4.480469l-16.515625 45.378906c-1.417969 3.894532.589844 8.195313 4.484375 9.613282zm-36.429687 285.75c-3.890626-1.410157-8.195313.59375-9.613282 4.484374l-16.515625 45.378907c-1.417969 3.890625.589844 8.195312 4.480469 9.609375.847656.308594 1.714844.457031 2.566406.457031 3.0625 0 5.941406-1.894531 7.046875-4.9375l16.515625-45.375c1.417969-3.894531-.589844-8.199219-4.480468-9.617187zm-15.066407-256.917969c-3.890625-1.414063-8.195312.59375-9.613281 4.484375l-16.515625 45.375c-1.414063 3.894531.589844 8.195312 4.484375 9.613281.84375.308594 1.710938.453125 2.5625.453125 3.066406 0 5.941406-1.890625 7.050781-4.933594l16.515625-45.378906c1.417969-3.890625-.589844-8.195312-4.484375-9.613281zm257.449219-40.214844c.84375.308594 1.710938.453125 2.5625.453125 3.0625 0 5.941406-1.890625 7.050781-4.933594l16.515625-45.378906c1.414063-3.890625-.589844-8.195312-4.484375-9.609375-3.890625-1.414063-8.195312.589844-9.613281 4.480469l-16.515625 45.375c-1.414063 3.894531.589844 8.199218 4.484375 9.613281zm-211.375 150.230469c-3.894531-1.414063-8.199219.589844-9.613281 4.480468l-16.515625 45.378907c-1.417969 3.894531.589844 8.195312 4.480468 9.613281.847657.308594 1.710938.453125 2.566407.453125 3.0625 0 5.9375-1.890625 7.046875-4.933594l16.515625-45.378906c1.417969-3.890625-.589844-8.195313-4.480469-9.613281zm334.976562-137.269532c.847657.308594 1.714844.453126 2.566407.453126 3.0625 0 5.9375-1.890626 7.046875-4.9375l16.515625-45.375c1.417969-3.894532-.589844-8.195313-4.484375-9.613282-3.886719-1.414062-8.195313.589844-9.613282 4.480469l-16.515624 45.378906c-1.414063 3.890625.59375 8.195313 4.484374 9.613281zm-221.167968-32.238281c.847656.308594 1.714844.453125 2.566406.453125 3.0625 0 5.9375-1.890625 7.046875-4.9375l16.515625-45.375c1.417969-3.894531-.589844-8.195312-4.480469-9.613281-3.894531-1.414063-8.199219.589844-9.613281 4.484375l-16.515625 45.375c-1.417969 3.894531.589844 8.195312 4.480469 9.613281zm320.597656 48.550781c-3.890625-1.414062-8.195312.589844-9.613281 4.480469l-16.515625 45.378907c-1.417969 3.890624.589844 8.195312 4.484375 9.613281.847656.304687 1.710937.453125 2.5625.453125 3.066406 0 5.941406-1.894532 7.046875-4.9375l16.519531-45.378906c1.417969-3.890626-.589844-8.195313-4.484375-9.609376zm-186.28125 90.3125c4.140625 0 7.5-3.355468 7.5-7.5 0-4.035156 3.285156-7.316406 7.320312-7.316406 4.035157 0 7.316407 3.28125 7.316407 7.316406 0 4.144532 3.359375 7.5 7.5 7.5 4.144531 0 7.5-3.355468 7.5-7.5 0-12.308593-10.011719-22.316406-22.316407-22.316406-12.308593 0-22.320312 10.011719-22.320312 22.316406 0 4.140626 3.359375 7.5 7.5 7.5zm83.6875 83.078126c-7.210938-2.242188-14.863281-1.539063-21.546875 1.972656-1.105469.582031-2.15625 1.234375-3.160156 1.941406 15.460937-19.929688 20.335937-45.5625 14.078125-74.253906-3.195313-14.652344-7.847656-28.015625-13.847656-40.007813 3.761718 1.855469 7.847656 2.789063 11.921874 2.789063 7.53125 0 15.019532-3.125 20.351563-9.226563 9.785156-11.210937 8.628906-28.292969-2.582031-38.082031l-15.703125-13.707031c-12.59375-11-28.730469-17.46875-45.4375-18.214844-15.214844-.679687-30.410157 3.433594-43.226563 11.609375-14.722656-4.734375-30.917968-7.183594-48.414062-7.183594s-33.691406 2.449219-48.414063 7.183594c-12.816406-8.179688-28.003906-12.296875-43.226562-11.609375-16.707031.746094-32.84375 7.214844-45.441407 18.214844l-15.699218 13.707031c-11.210938 9.789062-12.367188 26.871094-2.582032 38.082031 5.332032 6.101563 12.820313 9.226563 20.347657 9.226563 4.078125 0 8.160156-.933594 11.921875-2.789063-5.996094 11.988281-10.652344 25.355469-13.84375 40.003907-2.789063 12.78125-3.386719 25.03125-1.785156 36.414062.578124 4.101562 4.367187 6.960938 8.472656 6.382812 4.101562-.578124 6.957031-4.371093 6.378906-8.472656-1.351562-9.617187-.820312-20.089844 1.585938-31.128906 6.101562-27.96875 17.703124-50.488281 34.144531-67.050781.390625-.316407.746093-.671875 1.066406-1.058594 11.039063-10.808594 24.203125-18.980469 39.300781-24.375.46875-.117187.929688-.277344 1.371094-.480469 13.910156-4.78125 29.414062-7.253906 46.402344-7.253906 16.992187 0 32.496094 2.476562 46.40625 7.253906.441406.203125.898437.363282 1.363281.476563 15.101563 5.398437 28.269531 13.570312 39.304687 24.378906.320313.386719.675782.742187 1.066407 1.058594 16.441406 16.5625 28.042969 39.082031 34.144531 67.050781 5.453125 25.011719 1.414062 46.140625-12.007812 62.804688-5.363282 6.660156-12.121094 12.453124-20.167969 17.367187-.441407.210937-.859375.464844-1.246094.75-21.320313 12.578125-51.433594 19.121094-88.863281 19.121094-54.730469 0-94.933594-14.621094-113.207032-41.171875-2.347656-3.410156-7.015624-4.273438-10.429687-1.925782-3.410156 2.347657-4.273437 7.019532-1.925781 10.429688 1.757812 2.558594 3.679687 5.003906 5.730468 7.359375-1.246093 2.410156-2.402343 4.851563-3.4375 7.304687-2.523437 6-3.046874 12.460938-1.703124 18.558594-23.746094-.085937-43.230469 9.929688-62.839844 31.289063-10.546875 11.480469-9.78125 29.402343 1.703125 39.949219 5.230469 4.804687 12.019531 7.445312 19.117187 7.445312 7.898438 0 15.492188-3.335938 20.832032-9.148438 12.0625-13.136718 17.691406-15.316406 33.5625-11.101562 2.726562 6.082031 6.085937 11.828125 9.992187 17.1875-9.484375 11.960938-14.984375 11.976562-26.007813 10.855469-6.40625-.660157-12.6875 1.226562-17.683593 5.296875-4.996094 4.074218-8.109375 9.847656-8.761719 16.257812-.652344 6.40625 1.230469 12.6875 5.300781 17.683594 4.074219 4.992188 9.84375 8.101562 16.253907 8.753906 3.882812.394532 7.628906.597656 11.136718.597656 15.777344 0 28.527344-3.914062 40.132813-12.316406 5.59375-4.050781 10.980469-9.28125 16.355469-15.855468.445312.234374.886718.464843 1.335937.695312.796875 8.222656-2.347656 16.148438-16.128906 27.449219-5.839844 4.789062-9.46875 11.566406-10.210938 19.082031-.742187 7.515625 1.484375 14.875 6.273438 20.714844 5.394531 6.574218 13.367187 10.347656 21.875 10.347656 6.511719 0 12.875-2.277344 17.917969-6.414062 21.21875-17.398438 33.382812-37.140626 36.25-58.761719 13.953124-.382813 27.253906-3.167969 39.417968-7.917969 3.898438 1.21875 6.90625 3.191406 8.566406 5.671875 2.738282 4.09375 2.089844 9.421875 1.066407 13.171875-1.992188 7.285156-1.03125 14.90625 2.710937 21.46875 3.738282 6.5625 9.8125 11.273438 17.089844 13.265625 2.445312.671875 4.964844 1.011719 7.484375 1.011719 8.292969 0 16.140625-3.632813 21.53125-9.960938 2.683594-3.15625 2.304687-7.890625-.851563-10.574218-3.152343-2.683594-7.886718-2.304688-10.570312.851562-2.535156 2.976562-6.21875 4.683594-10.109375 4.683594-1.179687 0-2.359375-.160156-3.519531-.476563-3.417969-.9375-6.269532-3.148437-8.027344-6.230469-1.753906-3.078124-2.207031-6.660156-1.269531-10.078124 2.652343-9.699219 1.589843-18.507813-3.070313-25.472657-1.304687-1.953125-2.878906-3.714843-4.695312-5.28125 7.824218-4.625 14.957031-10.140625 21.226562-16.386719 2.042969 2.152344 3.898438 4.453126 5.53125 6.898438 5.621094 8.398438 8.71875 18.367188 8.960938 28.832031.09375 4.082031 3.429687 7.328125 7.492187 7.328125.058594 0 .117188-.003906.175781-.003906 4.140626-.09375 7.421876-3.527344 7.328126-7.667969-.308594-13.324219-4.28125-26.058593-11.488282-36.832031-2.382812-3.554688-5.105468-6.878906-8.140625-9.941406 5.308594-7.144532 9.617188-14.949219 12.75-23.25 2.078125.125 4.097657.1875 6.042969.1875 10.265625 0 19.769531-1.652344 28.25-4.921875 13.695312-5.273438 31.902344-17.613281 40.859375-46.4375 2.242187-7.214844 1.539063-14.867188-1.976563-21.550781-3.511718-6.6875-9.421874-11.605469-16.632812-13.84375zm-243.90625-146.96875c-5.578125 1.3125-10.761719 3.964843-15.105469 7.753906l-15.699219 13.710937c-4.980468 4.347657-12.570312 3.832031-16.917968-1.148437-4.347656-4.976563-3.832032-12.566406 1.144531-16.917969l15.703125-13.707031c10.046875-8.769532 22.917969-13.933594 36.246094-14.527344 8.289062-.371094 16.578125 1.046875 24.265625 4.058594-10.957031 5.46875-20.867188 12.421875-29.636719 20.777344zm207.785156 7.753906c-4.34375-3.789063-9.527344-6.441406-15.105468-7.753906-8.765626-8.355469-18.675782-15.304688-29.628907-20.773438 7.683594-3.011719 15.976563-4.425781 24.257813-4.066406 13.324218.597656 26.199218 5.757812 36.246094 14.53125l15.699218 13.707031c4.980469 4.351563 5.496094 11.9375 1.148438 16.917969-4.347656 4.980468-11.9375 5.492187-16.917969 1.148437zm-94.394531 194.707031c11.464844 0 20.789063 9.324219 20.789063 20.789063 0 11.464843-9.324219 20.789062-20.789063 20.789062-11.460937 0-20.789063-9.324219-20.789063-20.789062 0-11.464844 9.324219-20.789063 20.789063-20.789063zm-126.496094-34.777344c.3125-.742187.644531-1.484375.980469-2.222656 23.296875 18.679687 58.578125 28.722656 103.804688 29.363281-5.675782 4.347656-10.015626 10.347656-12.292969 17.28125-20.1875-.558594-39.898438-4.453125-58.710938-11.597656-3.347656-6.996094-9.535156-12.601562-17.546875-14.949219-5.269531-1.542969-10.316406-2.734375-15.1875-3.585937-2.597656-4.308594-3.027344-9.582032-1.046875-14.289063zm4.554688 57.75c-24.203125-7.085937-35.449219-3.996093-52.320313 14.371094-2.542968 2.773437-6.015625 4.296875-9.78125 4.296875-3.332031 0-6.519531-1.238281-8.972656-3.496094-5.394531-4.949218-5.75-13.363281-.800781-18.757812 16.625-18.105469 32.125-26.457032 51.550781-26.457032 8.394531 0 17.519531 1.558594 27.785156 4.5625 7.027344 2.058594 11.066406 9.445313 9.011719 16.472657-2.058594 7.023437-9.445313 11.066406-16.472656 9.007812zm13.863281 65.582031c-9.042969 6.546876-18.707031 9.464844-31.339844 9.464844-3 0-6.234375-.171875-9.617187-.519531-2.421875-.246094-4.605469-1.421875-6.144531-3.308594-1.539063-1.890625-2.25-4.265625-2.003907-6.6875.246094-2.421875 1.421875-4.605469 3.3125-6.144531s4.265625-2.257812 6.683594-2.003906c15.527344 1.574218 25.464844-.230469 37.402344-14.199219 4.265625 4.300781 8.9375 8.234375 13.929687 11.785156-4.089844 4.804688-8.125 8.648438-12.222656 11.613281zm36.699219 56.570313c-2.402344 1.972656-5.308594 3.011719-8.40625 3.011719-4 0-7.746094-1.769532-10.277344-4.855469-2.246094-2.742187-3.292969-6.195313-2.945313-9.726563.347657-3.527343 2.050782-6.710937 4.792969-8.957031 13.394531-10.984375 20.277344-21.289062 21.519531-32.804687 8.296876 2.816406 17.015626 4.722656 25.996094 5.621094-2.742187 17.222656-13.035156 33.242187-30.679687 47.710937zm42.457031-62.113281c-1.101562 0-2.195312-.023438-3.289062-.058594-.003907 0-.007813 0-.011719 0-.007813 0-.015625 0-.019531 0-33.839844-1.078125-64.328126-18.574219-79.820313-45.128906 9.714844-2.183594 18-9.433594 20.988281-19.644532.328125-1.121093.574219-2.242187.757813-3.367187 17.671875 5.875 36.007812 9.152344 54.730469 9.78125 1.90625 17.953125 17.136718 31.984375 35.585937 31.984375 19.734375 0 35.789063-16.058594 35.789063-35.792969 0-2.351562-.234376-4.648437-.667969-6.875 10.257812-3.566406 20.210937-7.972656 29.707031-13.1875-1.070312 45.539063-42.710938 82.289063-93.75 82.289063zm90.941406-97.941406c-10.378906 6.097656-21.40625 11.136718-32.839844 15.035156-2.808593-3.953125-6.394531-7.320313-10.542968-9.859375 19.1875-2.464844 36.035156-7.035157 50.304687-13.613281-1.226562 3.457031-3.613281 6.5-6.921875 8.4375zm35.46875-27.441407c-.964844 1.722657-1.765625 3.558594-2.363281 5.488281-1.816406 5.847657-3.171875 10.199219-10.4375 11.355469.230469-2.179687.230469-4.386719-.011719-6.59375 4.671875-3.125 8.945313-6.546875 12.8125-10.25zm37.316406 17.820313c-7.179687 23.089844-21.324218 32.808594-31.929687 36.894531-6.847656 2.636719-14.324219 3.917969-22.859375 3.917969-.59375 0-1.210938-.015625-1.824219-.027344 1.089844-5.625 1.664063-11.410156 1.664063-17.3125 0-3.050781-.164063-6.125-.476563-9.183594 23.101563.199219 27.589844-14.1875 30.066407-22.167968 1.054687-3.386719 3.363281-6.160157 6.5-7.808594 3.140624-1.652344 6.730468-1.980469 10.117187-.929688 3.386719 1.054688 6.160156 3.359375 7.8125 6.5 1.652344 3.136719 1.980469 6.730469.929687 10.117188zm-161.855468-76.246094c-8.578125 3.601562-12.929688 11.121094-12.929688 22.347656 0 30.589844 20.082032 44.285156 39.980469 44.285156 10.601563 0 20.34375-3.769531 27.441406-10.613281 5.71875-5.511719 12.539063-15.832031 12.539063-33.671875 0-11.226562-4.347656-18.746094-12.925782-22.347656-5.1875-2.175781-11.375-2.792969-19.460937-2.960938v-4.824218c.699219-.238282 1.394531-.5 2.074219-.800782l13.949218-6.207031c4.433594-1.96875 7.738282-5.777343 9.070313-10.441406 1.328125-4.667969.527344-9.644531-2.203125-13.65625-3.3125-4.871094-8.273438-8.375-13.96875-9.867187-10.742188-2.808594-22.101562-2.808594-32.839844 0-5.699218 1.492187-10.660156 4.996093-13.972656 9.867187-2.726562 4.011719-3.53125 8.988281-2.199219 13.65625 1.328125 4.664063 4.632813 8.472656 9.066407 10.441406l13.949218 6.207031c.679688.300782 1.375.5625 2.074219.800782v4.820312c-8.175781.160156-14.417969.769532-19.644531 2.964844zm9.714844-28.496094c-.46875-.210937-.660157-.578125-.734376-.851562-.078124-.273438-.113281-.6875.175782-1.109375 1.273437-1.871094 3.179687-3.21875 5.367187-3.789063 4.128907-1.082031 8.375-1.621094 12.621094-1.621094s8.492187.539063 12.621094 1.621094c2.1875.570313 4.09375 1.917969 5.367187 3.789063.289063.421875.253906.835937.179688 1.109375-.078125.273437-.269532.640625-.738282.851562l-13.949218 6.203125c-2.210938.984375-4.746094.984375-6.957032 0zm17.335937 40.472656c24.140625 0 24.980469 1.808594 24.980469 10.371094 0 27.171875-19.121094 29.285156-24.980469 29.285156s-24.980469-2.113281-24.980469-29.285156c0-8.5625.84375-10.371094 24.980469-10.371094zm202.402344 102.042969c-3.890625-1.414062-8.195313.589844-9.609375 4.480469l-16.515625 45.378906c-1.417969 3.890625.589843 8.195313 4.480469 9.613282.847656.308593 1.710937.453124 2.566406.453124 3.0625 0 5.9375-1.890624 7.046875-4.9375l16.515625-45.375c1.417968-3.894531-.589844-8.199218-4.484375-9.613281zm-263.863281-181.613281c-12.304688 0-22.316407 10.011719-22.316407 22.320312 0 4.140626 3.355469 7.5 7.5 7.5 4.140625 0 7.5-3.359374 7.5-7.5 0-4.035156 3.28125-7.320312 7.316407-7.320312 4.039062 0 7.320312 3.285156 7.320312 7.320312 0 4.140626 3.359375 7.5 7.5 7.5s7.5-3.359374 7.5-7.5c0-12.308593-10.011719-22.320312-22.320312-22.320312zm241.058593 45.984375c-3.894531-1.414063-8.199219.589844-9.613281 4.484375l-16.515625 45.375c-1.417969 3.894531.589844 8.195312 4.480469 9.613281.847656.308594 1.714844.453125 2.566406.453125 3.0625 0 5.9375-1.890625 7.046875-4.933594l16.515625-45.378906c1.417969-3.890625-.589844-8.195312-4.480469-9.613281zm0 0"/></svg>