<svg viewBox="0 -12 511.99832 511" xmlns="http://www.w3.org/2000/svg"><path d="m266.246094 201.300781c-1.5625-3.835937-5.941406-5.679687-9.773438-4.113281-3.835937 1.5625-5.679687 5.9375-4.117187 9.773438 8.046875 19.75 24.195312 30.625 45.472656 30.625s37.425781-10.875 45.46875-30.625c1.566406-3.835938-.277344-8.210938-4.113281-9.773438-3.835938-1.566406-8.210938.28125-9.777344 4.113281-4.75 11.671875-12.839844 18.570313-24.078125 20.621094v-27.757813c1.246094-.355468 2.46875-.789062 3.664063-1.320312l17.351562-7.714844c5.015625-2.230468 8.757812-6.539062 10.261719-11.820312 1.503906-5.28125.597656-10.914063-2.492188-15.453125-3.867187-5.691407-9.667969-9.789063-16.324219-11.53125-13.058593-3.417969-26.863281-3.417969-39.917968 0-6.660156 1.742187-12.457032 5.839843-16.328125 11.53125-3.085938 4.539062-3.996094 10.171875-2.492188 15.453125 1.507813 5.28125 5.246094 9.589844 10.265625 11.820312l17.347656 7.714844c1.195313.53125 2.421876.964844 3.667969 1.320312v27.757813c-11.242187-2.050781-19.332031-8.953125-24.085937-20.621094zm9.160156-29.878906c-1.292969-.574219-1.765625-1.640625-1.929688-2.222656-.167968-.585938-.328124-1.742188.46875-2.910157 1.828126-2.691406 4.574219-4.628906 7.722657-5.453124 5.285156-1.386719 10.722656-2.078126 16.160156-2.078126 5.433594 0 10.871094.691407 16.15625 2.078126 3.152344.824218 5.894531 2.761718 7.726563 5.453124.792968 1.167969.632812 2.324219.46875 2.910157-.167969.582031-.640626 1.648437-1.933594 2.222656l-17.351563 7.71875c-3.222656 1.433594-6.917969 1.429687-10.136719 0zm-42.523438-40.222656c3.609376 0 6.789063-2.613281 7.394532-6.289063.667968-4.085937-2.101563-7.945312-6.1875-8.613281l-21.226563-3.480469c-4.085937-.671875-7.945312 2.097656-8.617187 6.1875-.667969 4.085938 2.101562 7.945313 6.1875 8.613282l10.074218 1.652343c-3.78125.382813-6.734374 3.578125-6.734374 7.460938v12.160156c0 4.140625 3.359374 7.5 7.5 7.5 4.144531 0 7.5-3.359375 7.5-7.5v-12.160156c0-3.039063-1.8125-5.652344-4.410157-6.828125l7.296875 1.195312c.410156.066406.820313.101563 1.222656.101563zm279.089844 263.675781c-.304687-6.382812-3.492187-12.140625-8.742187-15.789062l-33.050781-22.992188c-6.441407-4.480469-14.703126-4.902344-21.566407-1.101562-6.058593 3.351562-9.910156 9.378906-10.46875 16.136718-2.460937-.039062-4.742187-.234375-6.894531-.59375 10.671875-13.304687 17.765625-30.941406 21.085938-52.492187 1.953124-12.679688-4.113282-24.78125-14.410157-31.125 3.144531-7.488281 3.523438-15.914063.914063-23.761719 9.78125-7.066406 17.992187-15.273438 24.527344-24.597656 2.378906-3.390625 1.558593-8.066406-1.832032-10.445313-3.390625-2.378906-8.066406-1.558593-10.445312 1.832031-10.941406 15.601563-27.820313 27.820313-50.164063 36.324219-23.925781 9.105469-53.554687 13.722657-88.058593 13.722657-47.703126 0-85.722657-8.742188-112.011719-25.515626-.390625-.3125-.816407-.585937-1.277344-.824218-8.539063-5.613282-15.804687-12.09375-21.710937-19.425782-16.363282-20.316406-21.507813-47.121093-14.878907-77.515624 5.519531-25.328126 14.828125-47.226563 27.695313-65.238282 7.558594 6.804688 17.480468 10.746094 27.953125 10.746094 14.5 0 27.804687-8.5 33.894531-21.65625 5.371094-11.601562 1.933594-25.375-8.121094-33.144531 20.046875-8.96875 43.007813-13.523438 68.457032-13.523438 16.90625 0 32.820312 2.03125 47.480468 6.039063-2.636718 2.480468-5.4375 4.792968-8.390625 6.921875-10.617187 7.652343-14.332031 21.828125-8.832031 33.707031 6.09375 13.15625 19.394531 21.65625 33.894531 21.65625 15.128907 0 29.105469-8.207031 36.476563-21.425781 1.648437-2.957031 3.074218-6.015625 4.324218-9.128907 22.03125 20.730469 37.128907 49.28125 44.929688 85.046876 3.5 16.054687 3.769531 31.085937.808594 44.667968-.882813 4.046875 1.683594 8.042969 5.726562 8.925782.539063.117187 1.078125.171874 1.605469.171874 3.453125 0 6.558594-2.394531 7.320313-5.902343 3.429687-15.703125 3.15625-32.882813-.808594-51.058594-4.289063-19.671875-10.664063-37.367187-19.0625-53.015625 5.320312 3.882812 11.660156 5.953125 18.265625 5.953125.710937 0 1.429687-.023437 2.148437-.074219 8.296875-.5625 15.878906-4.320312 21.351563-10.585937 5.472656-6.265625 8.171875-14.289063 7.609375-22.585938-.5625-8.300781-4.320313-15.882812-10.585938-21.351562l-19.046875-16.628907c-15.007812-13.101562-34.230469-20.808593-54.136719-21.699218-1.859374-.085938-3.738281-.101563-5.628906-.0625-3.132812-7.511719-10.214844-12.535156-18.453125-12.9375-8.761719-.4414065-16.734375 4.464844-20.316406 12.464844-2.296875 5.125-5.097656 9.988281-8.339844 14.527343-17.839843-5.71875-37.433593-8.625-58.339843-8.625-21.261719 0-40.996094 2.976563-58.996094 8.839844-11.203125-7.28125-23.925782-11.925781-37.222656-13.585937-.179688-.386719-.363282-.765626-.539063-1.15625-3.585937-8-11.5625-12.890626-20.320313-12.464844-8.757812.429687-16.21875 6.078125-19 14.394531l-.59375 1.765625c-.230468.695312-.429687 1.398438-.640624 2.097656-10.214844 3.730469-19.792969 9.359375-27.902344 16.441406l-19.046875 16.625c-12.933594 11.292969-14.269531 31.003907-2.976563 43.9375 6.148438 7.042969 14.792969 10.644532 23.476563 10.644532 6.441406 0 12.902343-1.984375 18.394531-6.015625-4.621094 8.578125-8.617188 17.765625-12 27.515625-2.339844-3.117188-5.433594-5.617188-9.089844-7.28125-5.8125-2.648438-12.304687-2.839844-18.273437-.542969-11.929688 4.589844-17.996094 18.328125-13.523438 30.621094l12.785157 35.125c.742187 2.035156-.0625 4.328125-1.90625 5.453125l-8.035157 4.90625-22.652343-62.242188c-4.472657-12.289062-17.949219-18.914062-30.042969-14.765625-6.046875 2.078125-10.894531 6.398438-13.648438 12.164063-2.753906 5.769531-3.066406 12.253906-.882812 18.257812l22.839843 62.742188-9.308593 1.40625c-2.136719.324218-4.226563-.914063-4.964844-2.949219l-12.785156-35.125c-4.472657-12.292969-17.953125-18.917969-30.042969-14.765625-6.046875 2.078125-10.894531 6.394531-13.648438 12.164062-2.753906 5.769532-3.066406 12.25-.882812 18.257813l12.96875 35.628906c8.402344 23.082031 32.132812 37.175781 56.421875 33.5l18.722656-2.832031 10.84375 29.796875c-.558593.53125-1.101562 1.082031-1.617187 1.652344-11.429688 12.699219-10.394532 32.335937 2.304687 43.765625 6.53125 5.878906 13.695313 10.925781 21.320313 15.042968l21.597656 59.339844c3.570312 9.804688 12.867188 16.003906 22.621094 16.003906 2.472656 0 4.976562-.398437 7.421875-1.238281 6.050781-2.074219 10.898437-6.394531 13.652343-12.164062 2.753907-5.765625 3.066407-12.25.878907-18.253907l-11.578125-31.8125c9.050781-.785156 17.796875-2.910156 26.109375-6.335937 8.238281 15.394531 20.273437 28.808594 34.988281 39.230469-3.65625 19.847656-2.171875 39.074218 4.453125 57.222656 1.109375 3.042969 3.984375 4.929688 7.042969 4.929688.855468 0 1.726562-.148438 2.574218-.457032 3.890626-1.421875 5.890626-5.726562 4.472657-9.617187-5.050781-13.832031-6.617188-28.453125-4.695313-43.585938 9.660156 5.089844 20.152344 9.003907 31.246094 11.539063-.136719 12.628906 3.492188 24.40625 11.03125 35.8125 2.359375 3.5625 3.183594 7.832031 2.332031 12.015625-.855469 4.183593-3.285156 7.785156-6.847656 10.144531-2.628906 1.734375-5.667969 2.652344-8.800781 2.652344-3.96875 0-7.769532-1.449219-10.699219-4.082032-3.082031-2.769531-7.824219-2.515624-10.59375.5625-2.769531 3.082032-2.515625 7.824219.566406 10.589844 5.6875 5.113282 13.046875 7.929688 20.726563 7.929688 6.082031 0 11.984375-1.777344 17.074218-5.144532 6.902344-4.5625 11.617188-11.546874 13.269532-19.65625 1.652344-8.113281.050781-16.378906-4.515625-23.285156-5.410157-8.179687-8.183594-16.28125-8.519531-25.015625 4.804687.527344 9.699218.804688 14.660156.804688 6.394531 0 12.738281-.46875 18.988281-1.359375 5.960937 26.15625 19.632813 47.117187 39.882813 60.902344 5.164062 3.511718 11.1875 5.371093 17.414062 5.371093 10.277344 0 19.863281-5.070312 25.640625-13.558593 4.660156-6.84375 6.371094-15.089844 4.824219-23.222657-1.542969-8.132812-6.164063-15.175781-13.007813-19.832031-3.820312-2.597656-6.957031-6.050781-9.433593-10.308594 12.488281 6.484375 26.273437 9.691406 41.699218 9.691406.542969 0 1.089844-.003906 1.640625-.011718.652344 7.492187 5.277344 13.941406 12.226563 16.957031 2.644531 1.144531 5.417968 1.707031 8.167968 1.707031 4.742188 0 9.40625-1.667968 13.191407-4.878906l30.6875-26.066406c4.871093-4.136719 7.488281-10.171875 7.179687-16.558594zm-89.554687-366.390625c.285156.011719.574219.011719.859375.027344 16.519531.738281 32.480468 7.136719 44.941406 18.011719l19.042969 16.628906c3.246093 2.835937 5.195312 6.765625 5.488281 11.066406s-1.109375 8.457031-3.945312 11.707031c-2.835938 3.246094-6.765626 5.195313-11.066407 5.488281-4.304687.289063-8.457031-1.113281-11.707031-3.945312l-19.042969-16.628906c-5.144531-4.488282-11.273437-7.609375-17.84375-9.121094-2.195312-2.101562-4.457031-4.132812-6.777343-6.097656 1.550781-8.945313 1.59375-18.128906.050781-27.136719zm-42.640625 12.523437c.054687-.070312.113281-.136718.164062-.210937 5.320313-6.601563 9.804688-13.882813 13.292969-21.671875 1.589844-3.546875 4.917969-3.664062 5.898437-3.617188.980469.046876 4.277344.492188 5.511719 4.171876l.59375 1.773437c.207031.621094.386719 1.25.574219 1.878906.015625.054688.035156.109375.050781.167969 4.96875 16.660156 3.027344 34.757812-5.46875 49.988281-4.722656 8.46875-13.679687 13.730469-23.375 13.730469-8.675781 0-16.636719-5.085938-20.28125-12.960938-2.484375-5.367187-.808593-11.777343 3.992188-15.234374 7.140625-5.152344 13.539062-11.222657 19.046875-18.015626zm-144.035156-6.125c-1.242188.582032-2.480469 1.179688-3.703126 1.792969-1.484374-1.554687-2.914062-3.160156-4.273437-4.820312 2.714844.851562 5.378906 1.863281 7.976563 3.027343zm-45.324219-13.429687.59375-1.769531c1.234375-3.683594 4.53125-4.128906 5.511719-4.175782.082031-.003906.175781-.003906.28125-.003906 1.226562 0 4.15625.359375 5.617187 3.621094 7.125 15.90625 18.363281 29.703125 32.503906 39.898438 4.800781 3.460937 6.480469 9.867187 3.992188 15.238281-3.644531 7.871093-11.605469 12.957031-20.28125 12.957031-8.878907 0-17.128907-4.421875-22.085938-11.671875-.035156-.054687-.074219-.105469-.109375-.15625-.414062-.617187-.816406-1.246094-1.179687-1.902344-8.84375-15.855469-10.609375-34.824219-4.84375-52.035156zm-30.714844 66.015625c-6.707031 5.851562-16.921875 5.160156-22.773437-1.542969-5.855469-6.703125-5.164063-16.917969 1.542968-22.773437l19.042969-16.628906c4.449219-3.882813 9.441406-7.222657 14.761719-9.949219-.804688 11.914062 1.085937 23.914062 5.550781 35.066406zm-3.925781 140.148438c2.886718 5.636718 6.355468 10.988281 10.40625 16.019531 5.828125 7.234375 12.757812 13.730469 20.722656 19.476562-2.984375 8.964844-1.992188 18.566407 2.246094 26.585938-5.425782 5.128906-11.472656 7.957031-18.03125 8.40625-5.8125.402343-12.007813-1.007813-18.058594-4.070313l-19.125-52.539062 16.164062-9.867188c1.988282-1.214844 3.882813-2.554687 5.675782-4.011718zm-44.660156 94.101562c-4.890626-4.398438-6.421876-11.148438-4.445313-17.019531l7.003906 19.238281c-.863281-.722656-1.71875-1.460938-2.558593-2.21875zm63.039062 81.675781c-1.007812 2.101563-2.777344 3.679688-4.984375 4.4375-4.410156 1.515625-9.382813-1.046875-11.078125-5.707031l-41.773438-114.773438c-.003906-.007812-.003906-.019531-.011718-.03125l-12.703125-34.910156c-2.414063-6.617187-9.214844-10.660156-16.179688-9.605468l-18.84375 2.847656c-17.253906 2.613281-34.113281-7.398438-40.082031-23.796875l-12.964844-35.628907c-.800781-2.191406-.683594-4.558593.320313-6.664062 1.003906-2.105469 2.773437-3.679688 4.984375-4.4375 4.414062-1.515625 9.378906 1.046875 11.078125 5.707031l12.78125 35.125c3.175781 8.71875 12.132812 14.039063 21.304687 12.652344l11.25-1.703125c3.984375-.601562 7.453125-2.9375 9.511719-6.402344 2.058594-3.46875 2.449219-7.628906 1.070313-11.417968l-23.507813-64.585938c-.800781-2.195312-.683594-4.5625.320313-6.664062 1.003906-2.105469 2.777343-3.683594 4.984374-4.441407 4.40625-1.515625 9.378907 1.046875 11.078126 5.707031l23.324218 64.085938c1.378906 3.789062 4.351563 6.726562 8.15625 8.058594 3.808594 1.332031 7.960938.894531 11.40625-1.207032l9.707032-5.925781c7.917968-4.835937 11.359374-14.667969 8.191406-23.386719l-12.785156-35.125c-1.699219-4.664062.460937-9.820312 4.8125-11.492187 2.183593-.839844 4.550781-.769531 6.675781.195313 2.121093.964843 3.730469 2.707031 4.527343 4.898437l4.230469 11.613281c-.207031.902344-.425781 1.789063-.625 2.699219-4.679687 21.464844-4.15625 41.488281 1.402344 59.296875-2.207031 2.316406-4.695313 4.335938-7.445313 6.015625l-16.265624 9.925781c-6.011719 3.671875-8.625 11.140625-6.21875 17.757813l20.15625 55.375 19.414062 53.339843c.003906.011719.007812.027344.015625.042969l15.089844 41.457031c.792969 2.195313.679687 4.558594-.324219 6.667969zm.191406-58.417969c-.894531.0625-1.800781.089844-2.703125.117188l-11.980469-32.921875c3.175782.660156 6.355469 1 9.5 1 .996094 0 1.996094-.03125 2.984376-.101563 6.703124-.460937 12.960937-2.4375 18.738281-5.898437.242187 11.359375 2.363281 22.300781 6.101562 32.585937-7.199219 2.917969-14.78125 4.679688-22.640625 5.21875zm263.164063-29.21875c-3.566407 23.144532-11.5 40.386719-23.992188 52.003907-.523437.359375-1 .792969-1.421875 1.285156-8.183594 7.136719-18.226562 11.992187-30.1875 14.617187-.023437.003907-.046875.011719-.074218.015626-.941407.207031-1.890626.402343-2.855469.578124-.96875.179688-1.953125.269532-2.929688.269532-.160156 0-.316406-.015625-.472656-.019532-.109375-.007812-.214844-.011718-.320313-.015624-7.351562-.363282-13.550781-5.730469-14.90625-13.054688-.773437-4.199219.132813-8.449219 2.554688-11.96875s6.066406-5.882812 10.269531-6.65625c13.367188-2.46875 27.710938-9.382812 32.726563-41.921875 1.214844-7.894531 8.042968-13.558594 15.796875-13.558594.804687 0 1.621093.0625 2.441406.1875 8.714844 1.34375 14.710937 9.523438 13.371094 18.238281zm-12.074219-44.179687c.445312 3.699219-.222656 7.460937-1.925781 10.8125-13.441407-.792969-25.746094 7.253906-30.605469 19.503906-18.007812 7.675781-36.945312 12.679688-56.421875 14.917969-3.257813-9.394531-9.960937-17.195312-18.597656-21.863281 44.136719-.558594 80.421875-8.515625 107.550781-23.371094zm-101.78125 58.132813c0 13.503906-10.984375 24.488281-24.488281 24.488281-13.5 0-24.484375-10.984375-24.484375-24.488281 0-13.503907 10.984375-24.488282 24.484375-24.488282 13.503906 0 24.488281 10.984375 24.488281 24.488282zm-123.351562-58.1875c21.855468 11.960937 49.621093 19.46875 82.539062 22.246093-8.277344 3.777344-15.03125 10.324219-19.066406 18.457031-19.046875-4.695312-37.265625-12.09375-54.234375-22.054687-6.632813-3.894531-10.121094-11.332031-9.238281-18.648437zm112.5625 129.519531c-58.871094 0-106.789063-42.894531-107.007813-95.695313 16.984375 9.507813 35.085937 16.664063 53.949219 21.347656-.074219.996094-.128906 2-.128906 3.015626 0 21.773437 17.714843 39.488281 39.488281 39.488281 21.117187 0 38.414062-16.664063 39.4375-37.53125 17.152343-2.003907 33.914062-6.003907 50.054687-11.949219-4.730468 15.839844-12.371094 17.261719-18.210937 18.339844-8.140625 1.503906-15.207031 6.085937-19.898438 12.902344-4.695312 6.820312-6.449219 15.058593-4.945312 23.199218 1.386719 7.515625 5.414062 13.972656 11.011719 18.492188-13.679688 5.511718-28.542969 8.390625-43.75 8.390625zm85.304687 35.699219c3.53125 2.40625 5.914063 6.039062 6.714844 10.234374.796875 4.195313-.085938 8.453126-2.492188 11.984376-2.980469 4.378906-7.929687 6.996093-13.238281 6.996093-3.207031 0-6.308594-.960937-8.976562-2.773437-16.933594-11.523438-28.449219-29.226563-33.609376-51.445313 10.558594-2.757812 20.691407-6.820312 30.136719-12.109375 2.773438 16.640625 10.105469 29.382813 21.464844 37.113282zm96.910156-36.742188-30.691406 26.066406c-2.328125 1.976563-4.746094 1.246094-5.679687.84375-.933594-.40625-3.117188-1.675781-3.265626-4.726562l-.320312-6.652344c-.097656-2.023438-1.007812-3.917969-2.523438-5.257812-1.511718-1.339844-3.5-2.011719-5.523437-1.859376-2.820313.207032-5.578125.3125-8.199219.3125-16.816406 0-30.820312-4.269531-43.433594-13.300781 8.796876-3.019531 16.671876-7.277343 23.578126-12.738281 7.867187 3.023438 16.71875 4.023438 27.429687 3.121094 4.023437-.339844 7.054687-3.800782 6.859375-7.835938l-.230469-4.84375c-.148437-3.050781 1.90625-4.523437 2.796875-5.015625.890625-.492187 3.230469-1.449219 5.734375.292969l33.054688 22.992188c1.394531.96875 2.242187 2.5 2.324219 4.199218.082031 1.699219-.617188 3.304688-1.910157 4.402344zm-103.675781-281c-.667969-4.085938-4.523438-6.855469-8.613281-6.1875l-21.226563 3.480469c-4.085937.671875-6.855468 4.527343-6.1875 8.617187.601563 3.675782 3.785156 6.285156 7.390625 6.285156.40625 0 .8125-.03125 1.226563-.097656l7.296875-1.199218c-2.597657 1.179687-4.410157 3.789062-4.410157 6.828124v12.160157c0 4.144531 3.355469 7.5 7.5 7.5 4.140626 0 7.5-3.355469 7.5-7.5v-12.160157c0-3.882812-2.953124-7.074218-6.734374-7.457031l10.074218-1.652343c4.085938-.671876 6.855469-4.527344 6.183594-8.617188zm0 0"/></svg>